<svg width="45" height="45" viewBox="0 0 45 45" fill="none" xmlns="http://www.w3.org/2000/svg">
<g clip-path="url(#clip0_0_294)">
<path d="M34.3121 28.1249C31.2183 27.8437 29.5308 32.0624 27.2808 33.1874C23.6246 35.1562 16.8746 28.1249 16.8746 28.1249C16.8746 28.1249 9.84332 21.3749 11.5308 17.7187C12.9371 15.4687 17.1558 13.7812 16.8746 10.6874C16.5933 7.87494 10.4058 -2.25006 7.31207 0.562445C0.562071 6.74994 -0.000428335 9.28119 -0.000428335 14.3437C-0.281678 23.0624 10.9683 34.0312 10.9683 34.0312C12.0933 35.1562 21.9371 45.2812 30.6558 44.9999C35.7183 44.9999 38.2496 44.4374 44.4371 37.6874C47.2496 34.5937 37.4058 28.4062 34.3121 28.1249V28.1249Z" fill="#607CE6"/>
</g>
<defs>
<clipPath id="clip0_0_294">
<rect width="45" height="45" fill="white"/>
</clipPath>
</defs>
</svg>
